 <svg version="1.0" xmlns="http://www.w3.org/2000/svg"  height="54px" viewBox="0 0 700.000000 140.000000" preserveAspectRatio="xMidYMid meet">
                <metadata>
                  Created by potrace 1.12, written by Peter Selinger 2001-2015
                </metadata>
                <g transform="translate(0.000000,140.000000) scale(0.100000,-0.100000)" fill="#fff"  stroke="none">
                  <path d="M610 1194 c0 -3 16 -25 35 -48 19 -24 35 -46 35 -50 0 -3 -96 -6
-213 -6 -118 0 -217 -3 -220 -6 -4 -4 14 -29 38 -56 l45 -50 0 -218 c0 -132 4
-221 10 -225 6 -4 11 73 12 212 l3 218 170 0 170 0 5 -250 5 -250 405 0 405 0
5 250 5 250 170 0 170 0 3 -217 c1 -134 6 -218 12 -218 6 0 10 83 10 221 l0
221 45 52 c25 29 42 56 38 59 -3 4 -100 7 -215 7 -114 0 -208 4 -208 8 0 4 16
23 35 42 19 19 35 40 35 47 0 11 -97 13 -505 13 -278 0 -505 -3 -505 -6z m970
-20 c0 -3 -15 -23 -32 -44 l-33 -40 -395 0 -394 0 -38 37 c-21 20 -38 41 -38
45 0 4 209 8 465 8 256 0 465 -3 465 -6z m-885 -144 l0 -35 -174 -3 -174 -2
-29 27 c-54 52 -47 54 175 51 l202 -3 0 -35z m800 -255 l0 -290 -179 -3 c-110
-1 -183 1 -190 8 -6 6 -14 6 -22 0 -7 -7 -83 -9 -195 -8 l-184 3 -3 293 -2
292 387 -2 388 -3 0 -290z m435 282 c0 -7 -13 -25 -28 -40 l-29 -27 -174 2
c-174 3 -174 3 -177 26 -8 52 -7 52 208 52 158 0 200 -3 200 -13z"></path>
                  <path d="M1110 780 c0 -173 4 -270 10 -270 6 0 10 97 10 270 0 173 -4 270 -10
270 -6 0 -10 -97 -10 -270z"></path>
                  <path d="M767 1023 c-3 -5 -7 -117 -8 -249 -1 -177 1 -239 10 -239 9 0 12 64
12 244 0 134 -2 246 -5 248 -2 2 -6 0 -9 -4z"></path>
                  <path d="M1047 788 c2 -134 6 -244 10 -246 5 -1 9 108 11 243 2 193 0 245 -10
245 -10 0 -13 -52 -11 -242z"></path>
                  <path d="M1167 1023 c-4 -3 -7 -116 -7 -250 0 -188 3 -243 13 -243 9 0 11 55
10 246 -2 136 -4 248 -6 250 -2 2 -7 1 -10 -3z"></path>
                  <path d="M1380 1020 c0 -5 5 -10 10 -10 6 0 10 5 10 10 0 6 -4 10 -10 10 -5 0
-10 -4 -10 -10z"></path>
                  <path d="M1450 1027 c-4 -135 1 -488 7 -489 12 -4 15 474 3 486 -5 5 -10 7
-10 3z"></path>
                  <path d="M1200 820 c0 -5 5 -10 10 -10 6 0 10 5 10 10 0 6 -4 10 -10 10 -5 0
-10 -4 -10 -10z"></path>
                  <path d="M395 929 c-4 -6 -5 -11 -4 -12 14 -7 259 6 259 14 0 13 -247 12 -255
-2z"></path>
                  <path d="M1580 931 c0 -6 48 -12 118 -13 l117 -3 3 -167 c1 -104 6 -168 12
-168 7 0 9 64 8 178 l-3 177 -127 3 c-81 2 -128 -1 -128 -7z"></path>
                  <path d="M390 870 c0 -5 5 -10 10 -10 6 0 10 5 10 10 0 6 -4 10 -10 10 -5 0
-10 -4 -10 -10z"></path>
                  <path d="M4394 856 c-9 -24 4 -48 23 -44 12 2 18 12 18 28 0 29 -32 41 -41 16z"></path>
                  <path d="M5530 855 c-16 -19 -5 -47 17 -43 11 2 18 12 18 27 0 29 -17 37 -35
16z"></path>
                  <path d="M5860 854 c-11 -12 -10 -18 3 -32 16 -15 18 -15 34 0 13 14 14 20 3
32 -7 9 -16 16 -20 16 -4 0 -13 -7 -20 -16z"></path>
                  <path d="M2418 830 c-40 -41 -33 -69 38 -140 30 -31 54 -63 54 -73 0 -28 -29
-32 -62 -7 l-30 22 -20 -20 -21 -20 26 -26 c20 -20 36 -26 69 -26 53 0 84 20
93 61 10 44 -9 81 -66 129 -27 23 -49 46 -49 51 0 17 31 22 55 9 20 -11 27
-11 40 0 23 19 18 38 -15 55 -45 23 -78 19 -112 -15z"></path>
                  <path d="M2935 846 c-42 -18 -83 -69 -91 -111 -13 -72 21 -151 78 -181 61 -31
188 -12 204 31 12 29 -7 34 -43 10 -64 -44 -155 -26 -189 37 -8 13 -13 44 -14
69 0 55 26 94 76 115 48 20 76 17 118 -11 43 -29 59 -32 54 -9 -9 49 -129 80
-193 50z"></path>
                  <path d="M3628 854 c-4 -3 -4 -21 -1 -40 5 -30 3 -36 -16 -41 -27 -7 -27 -19
0 -26 19 -5 20 -11 18 -104 -3 -80 0 -98 11 -98 12 0 16 22 20 100 4 86 7 100
22 97 27 -4 31 17 4 28 -19 7 -25 17 -28 46 -3 35 -16 52 -30 38z"></path>
                  <path d="M5124 845 c-4 -9 -4 -34 -1 -55 6 -44 -1 -48 -39 -24 -31 21 -88 13
-120 -17 -80 -75 -34 -209 71 -209 20 0 45 5 56 11 15 8 24 7 35 -2 29 -24 35
5 32 156 -2 108 -6 149 -15 153 -7 2 -16 -4 -19 -13z m-45 -110 c33 -17 41
-33 41 -83 0 -94 -119 -115 -156 -27 -17 41 -7 73 32 104 32 25 45 26 83 6z"></path>
                  <path d="M6115 848 c-3 -8 -4 -79 -3 -158 2 -117 6 -145 17 -145 11 0 15 18
16 79 1 73 3 81 29 102 31 27 54 30 82 10 15 -12 20 -30 24 -103 3 -49 9 -88
15 -88 15 0 17 136 3 180 -11 34 -19 41 -51 49 -31 8 -42 6 -67 -12 -35 -26
-43 -18 -38 45 2 30 -1 48 -9 50 -7 3 -15 -2 -18 -9z"></path>
                  <path d="M2024 836 c-3 -9 -5 -67 -3 -130 4 -105 6 -117 28 -140 34 -36 107
-37 148 -2 28 24 28 24 28 153 l0 128 -25 0 c-25 0 -25 -1 -30 -112 -4 -88 -9
-116 -22 -129 -14 -15 -22 -16 -42 -6 -25 11 -25 14 -28 129 -3 114 -4 118
-26 121 -13 2 -25 -3 -28 -12z"></path>
                  <path d="M5340 848 c0 -2 -1 -70 -2 -153 -1 -124 1 -150 13 -150 10 0 15 19
19 75 l5 75 55 0 c42 0 55 3 55 15 0 12 -13 15 -55 15 l-55 0 0 45 0 45 55 5
c30 3 55 10 55 15 0 8 -144 21 -145 13z"></path>
                  <path d="M3447 762 c-35 -39 -20 -79 48 -125 33 -23 31 -60 -3 -65 -13 -2 -30
2 -38 9 -12 10 -17 10 -27 0 -9 -10 -8 -15 7 -27 30 -22 79 -18 104 9 39 41
25 73 -50 120 -31 19 -35 38 -14 56 11 10 20 10 36 1 32 -17 53 5 26 26 -27
19 -70 18 -89 -4z"></path>
                  <path d="M3777 750 c-84 -73 -42 -210 65 -210 67 0 107 33 119 100 13 70 -32
129 -104 137 -39 5 -48 1 -80 -27z m127 -31 c52 -62 21 -149 -54 -149 -30 0
-43 6 -64 31 -35 42 -33 74 8 115 43 43 76 44 110 3z"></path>
                  <path d="M4078 770 c-9 -6 -27 -9 -40 -8 -23 3 -23 2 -23 -107 0 -91 3 -110
15 -110 12 0 16 17 18 82 3 75 5 84 29 103 29 23 58 26 70 8 4 -7 10 -53 13
-103 4 -71 8 -90 20 -90 12 0 16 18 20 84 5 77 7 86 32 104 23 17 32 19 52 9
24 -11 25 -16 28 -104 2 -75 6 -93 18 -93 12 0 16 16 18 75 2 41 0 85 -3 98
-15 59 -80 80 -129 41 l-26 -20 -26 20 c-29 23 -59 26 -86 11z"></path>
                  <path d="M4724 771 c-29 -13 -61 -55 -69 -91 -9 -40 11 -95 42 -120 54 -42
173 -14 173 41 0 25 -6 24 -42 -6 -38 -32 -87 -33 -116 -2 -12 13 -22 31 -22
40 0 15 13 17 96 17 l97 0 -6 37 c-4 20 -17 48 -30 61 -26 26 -89 38 -123 23z
m95 -47 c17 -14 29 -30 25 -35 -7 -12 -141 -12 -149 1 -9 15 44 60 71 60 12 0
36 -12 53 -26z"></path>
                  <path d="M5681 764 c-17 -12 -26 -13 -34 -5 -27 27 -32 9 -30 -101 2 -85 5
-113 15 -113 9 0 14 24 18 83 4 73 8 86 29 103 13 10 33 19 46 19 40 0 54 -28
57 -120 4 -117 23 -101 23 18 0 87 -2 95 -24 113 -28 23 -69 24 -100 3z"></path>
                  <path d="M5960 760 c-37 -37 -19 -75 61 -132 20 -13 22 -20 13 -35 -14 -22
-50 -29 -70 -12 -12 10 -17 10 -27 0 -18 -18 18 -41 64 -41 43 0 60 17 62 61
2 27 -5 38 -43 67 -51 39 -58 53 -35 72 13 11 21 11 36 2 25 -16 39 -15 39 3
0 35 -69 46 -100 15z"></path>
                  <path d="M6425 771 c-57 -25 -83 -117 -51 -179 21 -40 44 -52 100 -52 36 0 52
6 78 29 26 24 31 32 21 42 -10 10 -18 8 -41 -14 -37 -35 -84 -36 -118 -2 -46
46 -31 57 76 59 l95 1 -2 29 c-5 63 -97 113 -158 87z m99 -44 c17 -14 26 -29
22 -35 -9 -14 -142 -16 -150 -3 -9 13 52 61 77 61 12 0 35 -11 51 -23z"></path>
                  <path d="M6646 767 c-13 -9 -17 -23 -14 -52 2 -33 9 -44 43 -66 43 -29 51 -55
23 -73 -13 -8 -23 -8 -38 2 -23 14 -40 8 -40 -13 0 -16 22 -25 64 -25 43 0 68
28 64 71 -2 27 -12 39 -46 62 -32 22 -42 35 -40 51 3 22 21 25 66 11 32 -11
29 23 -4 35 -34 13 -57 13 -78 -3z"></path>
                  <path d="M3187 763 c-13 -12 -7 -133 7 -168 17 -41 42 -55 95 -55 45 0 76 23
86 62 9 37 1 163 -10 161 -5 -2 -12 -39 -15 -84 -5 -88 -19 -109 -70 -109 -46
0 -60 27 -60 118 0 62 -3 82 -13 82 -8 0 -17 -3 -20 -7z"></path>
                  <path d="M4405 758 c-10 -25 -1 -208 10 -208 13 0 19 200 6 213 -7 7 -12 5
-16 -5z"></path>
                  <path d="M4477 764 c-14 -14 6 -24 49 -24 24 0 44 -3 44 -8 0 -4 -25 -45 -55
-92 -30 -46 -51 -88 -46 -93 11 -11 156 -4 156 8 0 6 -20 11 -45 13 -25 2 -49
7 -53 11 -5 5 16 47 47 94 30 47 52 88 49 91 -8 8 -138 8 -146 0z"></path>
                  <path d="M5535 758 c-10 -25 -1 -208 10 -208 13 0 19 200 6 213 -7 7 -12 5
-16 -5z"></path>
                  <path d="M5868 763 c-2 -4 -4 -55 -3 -113 0 -86 3 -105 15 -105 12 0 15 19 15
109 0 74 -4 111 -12 113 -6 2 -13 0 -15 -4z"></path>
                  <path d="M390 595 c0 -8 5 -15 10 -15 6 0 10 7 10 15 0 8 -4 15 -10 15 -5 0
-10 -7 -10 -15z"></path>
                  <path d="M2289 594 c-17 -21 0 -49 32 -49 27 0 37 28 19 50 -16 19 -34 19 -51
-1z"></path>
                  <path d="M2620 590 c-9 -16 -8 -25 1 -36 27 -33 75 -2 52 35 -15 24 -40 25
-53 1z"></path>
                  <path d="M323 424 c-7 -18 2 -204 10 -204 4 0 1460 0 3237 0 l3230 0 0 108 0
107 -3236 0 c-2292 0 -3238 -3 -3241 -11z m541 -67 c14 -21 16 -90 3 -103 -3
-3 -16 0 -29 7 -12 7 -30 15 -38 19 -23 11 -25 71 -4 87 27 19 52 16 68 -10z
m156 -22 c0 -19 4 -36 9 -39 14 -9 30 18 28 49 -3 35 20 45 29 11 10 -41 -8
-81 -40 -84 -15 -2 -34 2 -42 9 -14 11 -20 80 -8 92 13 13 24 -5 24 -38z m257
-9 c16 -55 13 -63 -15 -45 -16 10 -23 10 -35 0 -21 -17 -32 3 -19 37 6 15 13
35 16 45 11 33 38 14 53 -37z m163 8 c0 -22 6 -37 15 -40 25 -10 17 -26 -12
-22 -25 3 -28 8 -31 42 -2 21 -1 45 2 53 10 24 26 4 26 -33z m178 -15 c-2 -24
-7 -44 -13 -44 -12 0 -19 69 -10 93 11 29 26 -4 23 -49z m197 52 c3 -6 -1 -13
-9 -18 -8 -4 -16 -24 -18 -43 -2 -19 -7 -35 -13 -35 -5 0 -11 16 -13 35 -2 19
-10 39 -18 43 -23 13 -6 27 31 27 19 0 36 -4 40 -9z m144 -8 c9 -17 11 -17 24
1 9 12 16 15 20 9 8 -13 -32 -108 -41 -99 -8 8 -32 78 -32 94 0 18 17 15 29
-5z m368 5 c32 -41 35 -122 3 -83 -12 14 -15 14 -31 -1 -24 -22 -41 -10 -29
21 6 14 14 36 20 50 11 28 22 32 37 13z m200 -20 l17 -33 6 30 c8 43 25 28 25
-23 1 -54 -12 -63 -40 -29 -25 32 -36 34 -32 8 1 -11 -2 -21 -8 -23 -5 -2 -11
14 -13 36 -6 71 16 88 45 34z m241 16 c43 -30 13 -100 -40 -92 -19 2 -24 10
-26 42 -2 21 -1 44 2 52 7 18 36 18 64 -2z m347 6 c3 -6 -4 -14 -16 -19 l-23
-8 22 -12 c36 -19 26 -55 -15 -59 -25 -3 -33 1 -33 13 0 11 5 15 14 12 23 -9
27 5 6 20 -11 8 -20 20 -20 27 0 29 51 49 65 26z m185 -5 c0 -8 -7 -15 -16
-15 -14 0 -14 -3 -3 -16 10 -13 10 -17 -1 -24 -12 -7 -11 -10 3 -16 27 -10 20
-26 -10 -22 -25 3 -28 8 -31 42 -2 21 -1 44 2 52 7 19 56 18 56 -1z m190 0 c6
-8 9 -23 5 -35 -4 -12 -2 -27 5 -35 8 -10 8 -15 -1 -21 -7 -4 -18 1 -26 12
-13 18 -15 18 -24 1 -6 -9 -14 -15 -20 -12 -10 7 -13 88 -2 98 12 12 50 7 63
-8z m157 -15 c7 -38 16 -38 31 2 9 25 14 30 24 20 9 -9 7 -22 -10 -57 -25 -52
-38 -56 -53 -17 -18 47 -22 82 -10 82 6 0 14 -13 18 -30z m201 -31 c-2 -24 -7
-44 -13 -44 -12 0 -19 69 -10 93 11 29 26 -4 23 -49z m197 51 c3 -6 -6 -15
-20 -20 -20 -7 -26 -16 -23 -33 2 -13 10 -22 20 -22 25 0 23 -19 -2 -23 -29
-5 -50 15 -50 49 0 40 57 77 75 49z m185 -5 c0 -8 -7 -15 -16 -15 -14 0 -14
-3 -3 -16 10 -13 10 -17 -1 -24 -12 -7 -11 -10 3 -16 27 -10 20 -26 -10 -22
-25 3 -28 8 -31 42 -2 21 -1 44 2 52 7 19 56 18 56 -1z m330 0 c0 -8 -7 -15
-15 -15 -21 0 -19 -9 8 -31 l22 -19 -23 -20 c-19 -15 -28 -17 -43 -9 -22 11
-16 31 6 22 22 -8 18 15 -5 27 -25 13 -26 36 -2 49 25 15 52 13 52 -4z m150
-40 c0 -24 -4 -46 -9 -50 -12 -7 -26 79 -16 94 13 21 25 -1 25 -44z m193 5 c4
0 7 9 7 20 0 11 5 20 11 20 14 0 7 -92 -8 -98 -7 -2 -18 8 -24 22 -14 31 -29
34 -29 7 0 -11 -4 -23 -10 -26 -12 -7 -14 88 -3 99 4 4 17 -4 28 -18 12 -14
24 -26 28 -26z m224 33 c2 -6 -6 -13 -19 -15 -17 -2 -23 -10 -23 -28 0 -20 5
-25 23 -23 14 2 22 -3 22 -12 0 -18 -50 -21 -68 -3 -20 20 -14 65 11 83 24 17
48 16 54 -2z m178 8 c3 -6 -3 -14 -12 -20 -16 -9 -16 -12 -3 -21 13 -9 13 -11
0 -19 -12 -9 -12 -11 3 -17 27 -10 20 -26 -10 -22 -25 3 -28 8 -31 42 -2 21
-1 44 2 52 6 16 42 19 51 5z m313 -52 c-3 -50 -21 -59 -26 -14 -2 17 -8 35
-13 42 -7 8 -4 15 8 22 26 14 35 0 31 -50z m187 41 c27 -30 10 -84 -28 -88
-15 -2 -27 1 -27 7 0 6 7 11 15 11 22 0 18 17 -5 23 -22 6 -27 36 -8 55 17 17
32 15 53 -8z m187 3 c22 -20 23 -51 1 -75 -17 -19 -53 -25 -53 -8 0 6 7 10 15
10 22 0 18 17 -5 23 -22 6 -27 36 -8 55 16 16 28 15 50 -5z m173 -38 c0 -30
-5 -50 -12 -52 -9 -3 -13 7 -13 31 0 19 -5 38 -10 41 -8 5 -7 11 1 21 21 25
34 9 34 -41z"></path>
                  <path d="M804 335 c-9 -22 22 -53 37 -38 15 15 7 47 -14 51 -9 2 -20 -4 -23
-13z"></path>
                  <path d="M2720 326 c0 -31 14 -40 30 -21 15 18 6 45 -15 45 -9 0 -15 -9 -15
-24z"></path>
                  <path d="M5770 340 c0 -5 5 -10 10 -10 6 0 10 5 10 10 0 6 -4 10 -10 10 -5 0
-10 -4 -10 -10z"></path>
                  <path d="M5960 339 c0 -5 5 -7 10 -4 6 3 10 8 10 11 0 2 -4 4 -10 4 -5 0 -10
-5 -10 -11z"></path>
                </g>
              </svg>
